<mxfile host="app.diagrams.net" agent="Mozilla/5.0 (Windows NT 10.0; Win64; x64) AppleWebKit/537.36 (KHTML, like Gecko) Chrome/128.0.0.0 Safari/537.36" version="24.7.16">
  <diagram name="Page-1" id="hkjHYkPeXPQSRguwjv7O">
    <mxGraphModel grid="0" page="1" gridSize="10" guides="1" tooltips="1" connect="1" arrows="1" fold="1" pageScale="1" pageWidth="827" pageHeight="1169" math="0" shadow="0">
      <root>
        <mxCell id="0" />
        <mxCell id="1" parent="0" />
        <mxCell id="DjEi6Veex3sviuDJXm7n-4" value="" style="edgeStyle=orthogonalEdgeStyle;rounded=0;orthogonalLoop=1;jettySize=auto;html=1;" edge="1" parent="1" source="DjEi6Veex3sviuDJXm7n-1" target="DjEi6Veex3sviuDJXm7n-2">
          <mxGeometry relative="1" as="geometry" />
        </mxCell>
        <mxCell id="DjEi6Veex3sviuDJXm7n-10" value="action terminée" style="edgeLabel;html=1;align=center;verticalAlign=middle;resizable=0;points=[];" connectable="0" vertex="1" parent="DjEi6Veex3sviuDJXm7n-4">
          <mxGeometry x="-0.2457" y="-1" relative="1" as="geometry">
            <mxPoint as="offset" />
          </mxGeometry>
        </mxCell>
        <mxCell id="DjEi6Veex3sviuDJXm7n-1" value="Initialisation" style="ellipse;whiteSpace=wrap;html=1;aspect=fixed;" vertex="1" parent="1">
          <mxGeometry x="350" y="230" width="80" height="80" as="geometry" />
        </mxCell>
        <mxCell id="DjEi6Veex3sviuDJXm7n-5" value="" style="edgeStyle=orthogonalEdgeStyle;rounded=0;orthogonalLoop=1;jettySize=auto;html=1;curved=1;" edge="1" parent="1" source="DjEi6Veex3sviuDJXm7n-2" target="DjEi6Veex3sviuDJXm7n-3">
          <mxGeometry relative="1" as="geometry" />
        </mxCell>
        <mxCell id="DjEi6Veex3sviuDJXm7n-11" value="Interuption timer 1" style="edgeLabel;html=1;align=center;verticalAlign=middle;resizable=0;points=[];" connectable="0" vertex="1" parent="DjEi6Veex3sviuDJXm7n-5">
          <mxGeometry x="-0.1989" y="-2" relative="1" as="geometry">
            <mxPoint y="-2" as="offset" />
          </mxGeometry>
        </mxCell>
        <mxCell id="DjEi6Veex3sviuDJXm7n-2" value="Attente" style="ellipse;whiteSpace=wrap;html=1;aspect=fixed;" vertex="1" parent="1">
          <mxGeometry x="350" y="360" width="80" height="80" as="geometry" />
        </mxCell>
        <mxCell id="DjEi6Veex3sviuDJXm7n-6" value="" style="edgeStyle=orthogonalEdgeStyle;rounded=0;orthogonalLoop=1;jettySize=auto;html=1;curved=1;" edge="1" parent="1" source="DjEi6Veex3sviuDJXm7n-3" target="DjEi6Veex3sviuDJXm7n-2">
          <mxGeometry relative="1" as="geometry" />
        </mxCell>
        <mxCell id="DjEi6Veex3sviuDJXm7n-12" value="action terminée" style="edgeLabel;html=1;align=center;verticalAlign=middle;resizable=0;points=[];" connectable="0" vertex="1" parent="DjEi6Veex3sviuDJXm7n-6">
          <mxGeometry x="-0.2583" relative="1" as="geometry">
            <mxPoint x="-1" y="-12" as="offset" />
          </mxGeometry>
        </mxCell>
        <mxCell id="DjEi6Veex3sviuDJXm7n-3" value="Pise d&#39;échantillons" style="ellipse;whiteSpace=wrap;html=1;aspect=fixed;" vertex="1" parent="1">
          <mxGeometry x="540" y="480" width="80" height="80" as="geometry" />
        </mxCell>
        <mxCell id="DjEi6Veex3sviuDJXm7n-7" value="Service task" style="ellipse;whiteSpace=wrap;html=1;aspect=fixed;" vertex="1" parent="1">
          <mxGeometry x="210" y="480" width="80" height="80" as="geometry" />
        </mxCell>
        <mxCell id="DjEi6Veex3sviuDJXm7n-8" value="" style="endArrow=classic;html=1;rounded=0;exitX=0.5;exitY=1;exitDx=0;exitDy=0;entryX=0.5;entryY=1;entryDx=0;entryDy=0;curved=1;" edge="1" parent="1" source="DjEi6Veex3sviuDJXm7n-3" target="DjEi6Veex3sviuDJXm7n-7">
          <mxGeometry width="50" height="50" relative="1" as="geometry">
            <mxPoint x="430" y="630" as="sourcePoint" />
            <mxPoint x="480" y="580" as="targetPoint" />
            <Array as="points">
              <mxPoint x="580" y="600" />
              <mxPoint x="250" y="600" />
            </Array>
          </mxGeometry>
        </mxCell>
        <mxCell id="DjEi6Veex3sviuDJXm7n-14" value="si les 100&#39;000 échantillons ont étés pris" style="edgeLabel;html=1;align=center;verticalAlign=middle;resizable=0;points=[];" connectable="0" vertex="1" parent="DjEi6Veex3sviuDJXm7n-8">
          <mxGeometry x="0.1157" y="2" relative="1" as="geometry">
            <mxPoint x="9" as="offset" />
          </mxGeometry>
        </mxCell>
        <mxCell id="DjEi6Veex3sviuDJXm7n-9" value="" style="endArrow=classic;html=1;rounded=0;entryX=0;entryY=0.5;entryDx=0;entryDy=0;curved=1;" edge="1" parent="1" target="DjEi6Veex3sviuDJXm7n-2">
          <mxGeometry width="50" height="50" relative="1" as="geometry">
            <mxPoint x="250" y="480" as="sourcePoint" />
            <mxPoint x="300" y="430" as="targetPoint" />
            <Array as="points">
              <mxPoint x="250" y="400" />
            </Array>
          </mxGeometry>
        </mxCell>
        <mxCell id="DjEi6Veex3sviuDJXm7n-13" value="action terminée" style="edgeLabel;html=1;align=center;verticalAlign=middle;resizable=0;points=[];" connectable="0" vertex="1" parent="DjEi6Veex3sviuDJXm7n-9">
          <mxGeometry x="-0.3365" y="-1" relative="1" as="geometry">
            <mxPoint as="offset" />
          </mxGeometry>
        </mxCell>
      </root>
    </mxGraphModel>
  </diagram>
</mxfile>
